<svg width="24" height="24" viewBox="0 0 24 24" fill="none" xmlns="http://www.w3.org/2000/svg">
<path fill-rule="evenodd" clip-rule="evenodd" d="M12 14.0002C14.6888 14.0002 16.8818 16.1226 16.9954 18.7834L17 19.0002V21.0002C17 21.5525 16.5523 22.0002 16 22.0002C15.4872 22.0002 15.0645 21.6142 15.0067 21.1169L15 21.0002V19.0002C15 17.4026 13.7511 16.0966 12.1763 16.0053L12 16.0002H5C3.40232 16.0002 2.09634 17.2492 2.00509 18.824L2 19.0002V21.0002C2 21.5525 1.55228 22.0002 1 22.0002C0.487164 22.0002 0.0644928 21.6142 0.00672773 21.1169L0 21.0002V19.0002C0 16.3115 2.12231 14.1184 4.78311 14.0049L5 14.0002H12ZM20.2552 14.0334C22.3885 14.5964 23.8951 16.508 23.9947 18.7255L24 18.956V21.0002C24 21.5525 23.5523 22.0002 23 22.0002C22.4872 22.0002 22.0645 21.6142 22.0067 21.1169L22 21.0002V18.9567C21.999 17.544 21.0679 16.3163 19.7448 15.9671C19.2108 15.8262 18.8922 15.2791 19.0331 14.7451C19.174 14.2111 19.7212 13.8924 20.2552 14.0334ZM8 2.00025C10.7614 2.00025 13 4.23882 13 7.00025C13 9.76167 10.7614 12.0002 8 12.0002C5.23858 12.0002 3 9.76167 3 7.00025C3 4.23882 5.23858 2.00025 8 2.00025ZM16.2562 2.03361C18.4649 2.61892 20 4.66566 20 7.00025C20 9.33483 18.4649 11.3816 16.2562 11.9669C15.7223 12.1084 15.1748 11.7903 15.0334 11.2564C14.8919 10.7225 15.21 10.1751 15.7439 10.0336C17.0657 9.68334 18 8.43755 18 7.00025C18 5.56294 17.0657 4.31715 15.7439 3.96688C15.21 3.82542 14.8919 3.27796 15.0334 2.7441C15.1748 2.21024 15.7223 1.89214 16.2562 2.03361ZM8 4.00025C6.34315 4.00025 5 5.34339 5 7.00025C5 8.6571 6.34315 10.0002 8 10.0002C9.65685 10.0002 11 8.6571 11 7.00025C11 5.34339 9.65685 4.00025 8 4.00025Z" fill="#7589A2"/>
</svg>
