<svg width="24" height="24" viewBox="0 0 24 24" fill="none" xmlns="http://www.w3.org/2000/svg">
<path fill-rule="evenodd" clip-rule="evenodd" d="M10.5 9.75C11.5544 9.75 12.4182 10.5659 12.4945 11.6007L12.5 11.75V20.25C12.5 21.3044 11.6841 22.1682 10.6493 22.2445L10.5 22.25H3.5C2.44564 22.25 1.58183 21.4341 1.50549 20.3993L1.5 20.25V11.75C1.5 10.6956 2.31588 9.83183 3.35074 9.75549L3.5 9.75H10.5ZM20.5 15.75C21.5544 15.75 22.4182 16.5659 22.4945 17.6007L22.5 17.75V20.25C22.5 21.3044 21.6841 22.1682 20.6493 22.2445L20.5 22.25H16.5C15.4456 22.25 14.5818 21.4341 14.5055 20.3993L14.5 20.25V17.75C14.5 16.6956 15.3159 15.8318 16.3507 15.7555L16.5 15.75H20.5ZM10.5 11.75H3.5V20.25H10.5V11.75ZM20.5 17.75H16.5V20.25H20.5V17.75ZM20.5 1.75C21.5544 1.75 22.4182 2.56588 22.4945 3.60074L22.5 3.75V11.75C22.5 12.8044 21.6841 13.6682 20.6493 13.7445L20.5 13.75H16.5C15.4456 13.75 14.5818 12.9341 14.5055 11.8993L14.5 11.75V3.75C14.5 2.69564 15.3159 1.83183 16.3507 1.75549L16.5 1.75H20.5ZM20.5 3.75H16.5V11.75H20.5V3.75ZM10.5 1.75C11.5544 1.75 12.4182 2.56588 12.4945 3.60074L12.5 3.75V5.75C12.5 6.80436 11.6841 7.66817 10.6493 7.74451L10.5 7.75H3.5C2.44564 7.75 1.58183 6.93412 1.50549 5.89926L1.5 5.75V3.75C1.5 2.69564 2.31588 1.83183 3.35074 1.75549L3.5 1.75H10.5ZM10.5 3.75H3.5V5.75H10.5V3.75Z" fill="#193251"/>
</svg>
