<svg width="24" height="24" viewBox="0 0 24 24" fill="none" xmlns="http://www.w3.org/2000/svg">
<path fill-rule="evenodd" clip-rule="evenodd" d="M2.23369 13.3631L2.16585 13.4538C1.73382 14.1022 2.19261 15.0032 3.00191 15.0032H10.8679L10.0096 21.8792C9.88578 22.87 11.1309 23.4105 11.7701 22.6434L21.7701 10.6434L21.838 10.5526C22.27 9.90424 21.8112 9.00324 21.0019 9.00324H13.1349L13.9942 2.12727C14.118 1.13644 12.8729 0.59595 12.2337 1.36305L2.23369 13.3631ZM11.5859 5.26424L11.0096 9.8792L11.0018 9.99751C10.9977 10.544 11.4405 11.0032 12.0019 11.0032H18.8659L12.4169 18.7412L12.9942 14.1273L13.002 14.009C13.0061 13.4625 12.5633 13.0032 12.0019 13.0032H5.13691L11.5859 5.26424Z" fill="#7589A2"/>
</svg>
