<svg width="24" height="24" viewBox="0 0 24 24" fill="none" xmlns="http://www.w3.org/2000/svg">
<path fill-rule="evenodd" clip-rule="evenodd" d="M19.0714 1C20.6691 1 21.9751 2.24892 22.0663 3.82373L22.0714 4V20C22.0714 21.5977 20.8225 22.9037 19.2477 22.9949L19.0714 23H7.07143C5.47375 23 4.16777 21.7511 4.07652 20.1763L4.07143 20L4.071 19H2.5C1.94772 19 1.5 18.5523 1.5 18C1.5 17.4872 1.88604 17.0645 2.38338 17.0067L2.5 17H4.071V15H2.5C1.94772 15 1.5 14.5523 1.5 14C1.5 13.4872 1.88604 13.0645 2.38338 13.0067L2.5 13H4.071V11H2.5C1.94772 11 1.5 10.5523 1.5 10C1.5 9.48716 1.88604 9.06449 2.38338 9.00673L2.5 9H4.071V7H2.5C1.94772 7 1.5 6.55228 1.5 6C1.5 5.48716 1.88604 5.06449 2.38338 5.00673L2.5 5H4.071L4.07143 4C4.07143 2.40232 5.32035 1.09634 6.89516 1.00509L7.07143 1H19.0714ZM19.0714 3H7.07143C6.55859 3 6.13592 3.38604 6.07816 3.88338L6.07143 4L6.071 5H7.64286C8.19514 5 8.64286 5.44772 8.64286 6C8.64286 6.51284 8.25682 6.93551 7.75948 6.99327L7.64286 7H6.071V9H7.64286C8.19514 9 8.64286 9.44772 8.64286 10C8.64286 10.5128 8.25682 10.9355 7.75948 10.9933L7.64286 11H6.071V13H7.64286C8.19514 13 8.64286 13.4477 8.64286 14C8.64286 14.5128 8.25682 14.9355 7.75948 14.9933L7.64286 15H6.071V17H7.64286C8.19514 17 8.64286 17.4477 8.64286 18C8.64286 18.5128 8.25682 18.9355 7.75948 18.9933L7.64286 19H6.071L6.07143 20C6.07143 20.5128 6.45747 20.9355 6.95481 20.9933L7.07143 21H19.0714C19.5843 21 20.0069 20.614 20.0647 20.1166L20.0714 20V4C20.0714 3.48716 19.6854 3.06449 19.188 3.00673L19.0714 3Z" fill="#7589A2"/>
</svg>
