<svg width="30" height="20" viewBox="0 0 30 20" fill="none" xmlns="http://www.w3.org/2000/svg">
<path fill-rule="evenodd" clip-rule="evenodd" d="M18.7059 12.0002C21.5528 12.0002 23.8749 14.1226 23.9951 16.7834L24 17.0002V19.0002C24 19.5525 23.5259 20.0002 22.9412 20.0002C22.3982 20.0002 21.9506 19.6142 21.8895 19.1169L21.8824 19.0002V17.0002C21.8824 15.4026 20.56 14.0966 18.8925 14.0053L18.7059 14.0002H11.2941C9.60246 14.0002 8.21965 15.2492 8.12304 16.824L8.11765 17.0002V19.0002C8.11765 19.5525 7.6436 20.0002 7.05882 20.0002C6.51582 20.0002 6.06829 19.6142 6.00712 19.1169L6 19.0002V17.0002C6 14.3115 8.24715 12.1184 11.0645 12.0049L11.2941 12.0002H18.7059ZM3.74482 12.0334C4.27882 11.8924 4.82596 12.2111 4.96689 12.7451C5.10783 13.2791 4.78918 13.8262 4.25518 13.9671C2.98959 14.3012 2.08273 15.4389 2.00536 16.7735L2 16.9567L2 19.0002L1.99327 19.1169C1.93551 19.6142 1.51284 20.0002 1 20.0002C0.487164 20.0002 0.0644928 19.6142 0.00672773 19.1169L0 19.0002V16.956L0.00525209 16.7255C0.104851 14.508 1.61151 12.5964 3.74482 12.0334ZM26.2554 12.0334C28.3887 12.5964 29.8954 14.508 29.995 16.7255L30.0002 16.956V19.0002C30.0002 19.5525 29.5525 20.0002 29.0002 20.0002C28.4874 20.0002 28.0647 19.6142 28.007 19.1169L28.0002 19.0002V16.9567C27.9992 15.544 27.0682 14.3163 25.7451 13.9671C25.2111 13.8262 24.8924 13.2791 25.0334 12.7451C25.1743 12.2111 25.7214 11.8924 26.2554 12.0334ZM15.0002 0.000246431C17.7617 0.000246431 20.0002 2.23882 20.0002 5.00025C20.0002 7.76167 17.7617 10.0002 15.0002 10.0002C12.2388 10.0002 10.0002 7.76167 10.0002 5.00025C10.0002 2.23882 12.2388 0.000246431 15.0002 0.000246431ZM7.74385 0.0336094C8.27771 -0.107858 8.82517 0.210238 8.96664 0.744097C9.1081 1.27796 8.79001 1.82542 8.25615 1.96688C6.93434 2.31715 6 3.56294 6 5.00025C6 6.43755 6.93434 7.68334 8.25615 8.03361C8.79001 8.17508 9.1081 8.72254 8.96664 9.2564C8.82517 9.79026 8.27771 10.1084 7.74385 9.96688C5.53506 9.38157 4 7.33483 4 5.00025C4 2.66566 5.53506 0.618919 7.74385 0.0336094ZM22.2564 0.0336094C24.4652 0.618919 26.0002 2.66566 26.0002 5.00025C26.0002 7.33483 24.4652 9.38157 22.2564 9.96688C21.7225 10.1084 21.1751 9.79026 21.0336 9.2564C20.8921 8.72254 21.2102 8.17508 21.7441 8.03361C23.0659 7.68334 24.0002 6.43755 24.0002 5.00025C24.0002 3.56294 23.0659 2.31715 21.7441 1.96688C21.2102 1.82542 20.8921 1.27796 21.0336 0.744097C21.1751 0.210238 21.7225 -0.107858 22.2564 0.0336094ZM15.0002 2.00025C13.3434 2.00025 12.0002 3.34339 12.0002 5.00025C12.0002 6.6571 13.3434 8.00025 15.0002 8.00025C16.6571 8.00025 18.0002 6.6571 18.0002 5.00025C18.0002 3.34339 16.6571 2.00025 15.0002 2.00025Z" fill="#7589A2"/>
</svg>
